PathFileType	4	(X/Y/Z)	s06c0001.trc
DataRate	CameraRate	NumFrames	NumMarkers	Units	OrigDataRate	OrigDataStartFrame	OrigNumFrames
200	200	4	49	mm	200	1750	2000
Frame#	Time	racr			lacr			c7			jug			rlel			rdr			llel			ldr			s2			lic			ric			lasi			rasi			rpsi			lpsi			rgt			lgt			rth1			rth2			rth3			rth4			rlfc			rmfc			rsh1			rsh2			rsh3			rsh4			rlmal			rmmal			rcal			rtoe			rmt5			rmt1			lth1			lth2			lth4			lth3			llfc			lmfc			llmal			lmmal			lcal			lmt1			lmt5			lsh1			lsh2			lsh3			lsh4			ltoe			
		X1	Y1	Z1	X2	Y2	Z2	X3	Y3	Z3	X4	Y4	Z4	X5	Y5	Z5	X6	Y6	Z6	X7	Y7	Z7	X8	Y8	Z8	X9	Y9	Z9	X10	Y10	Z10	X11	Y11	Z11	X12	Y12	Z12	X13	Y13	Z13	X14	Y14	Z14	X15	Y15	Z15	X16	Y16	Z16	X17	Y17	Z17	X18	Y18	Z18	X19	Y19	Z19	X20	Y20	Z20	X21	Y21	Z21	X22	Y22	Z22	X23	Y23	Z23	X24	Y24	Z24	X25	Y25	Z25	X26	Y26	Z26	X27	Y27	Z27	X28	Y28	Z28	X29	Y29	Z29	X30	Y30	Z30	X31	Y31	Z31	X32	Y32	Z32	X33	Y33	Z33	X34	Y34	Z34	X35	Y35	Z35	X36	Y36	Z36	X37	Y37	Z37	X38	Y38	Z38	X39	Y39	Z39	X40	Y40	Z40	X41	Y41	Z41	X42	Y42	Z42	X43	Y43	Z43	X44	Y44	Z44	X45	Y45	Z45	X46	Y46	Z46	X47	Y47	Z47	X48	Y48	Z48	X49	Y49	Z49	
1750	8.7500	225.956039	1418.309326	397.841003	226.732193	1429.743896	43.694534	188.941116	1491.054932	218.302643	309.315796	1395.149902	223.908844	249.934494	1202.712769	577.380371	358.340515	1048.590454	767.509460	231.647324	1207.352173	-127.636833	328.966736	1071.078491	-328.733093	111.682625	964.903870	231.184952	262.023407	1008.476257	51.143475	275.340088	986.917358	388.507843	314.952087	955.493591	79.822334	328.450745	945.565674	350.050201	135.681274	998.615356	258.549072	121.893188	995.826355	194.956818	237.460434	872.032288	401.587494	240.939880	896.979492	28.063330	248.384857	749.859009	420.483978	257.050079	660.295898	413.833435	221.036118	582.254395	400.252136	293.531860	656.053223	404.387604	203.868240	473.523468	380.468353	218.898300	450.323151	272.338776	173.420944	353.173248	402.045471	187.455994	267.629333	381.993622	159.206406	186.370911	370.638428	215.989075	269.820587	354.655884	154.611633	99.741371	358.426697	199.774750	121.986168	273.336914	109.502159	65.632599	297.121552	382.111053	75.638229	334.598053	280.671051	43.257442	392.355103	303.910980	59.780464	276.994476	225.380203	764.391602	12.182194	239.737015	678.320679	17.076742	276.052032	675.077454	25.350828	207.912231	595.662842	29.096588	180.126587	477.245758	49.732304	201.302658	455.771820	159.577820	154.505127	99.232101	56.010212	170.982101	121.937202	141.016327	100.982407	58.877728	110.517517	310.764740	52.401672	132.966156	289.991791	51.064823	17.841059	158.277374	370.761688	23.904842	176.136719	286.016357	36.864475	149.315659	201.994904	38.037811	206.922058	286.441345	61.419651	380.340485	71.583717	69.481140	
1751	8.7550	225.980835	1418.302002	397.844604	226.794830	1429.732422	43.689476	189.004333	1491.064575	218.272827	309.343323	1395.135986	223.927704	249.950241	1202.717896	577.394409	358.381012	1048.596436	767.515198	231.708969	1207.343384	-127.604675	329.022491	1071.072510	-328.710907	111.728355	964.896423	231.179611	262.087769	1008.481323	51.157417	275.368500	986.908875	388.524139	314.982513	955.486755	79.810799	328.472168	945.567383	350.073914	135.706909	998.616638	258.553894	121.934280	995.827026	194.929352	237.473206	872.022644	401.586426	240.998657	896.972900	28.064341	248.402451	749.864441	420.490265	257.061157	660.290466	413.844360	221.031631	582.252319	400.242493	293.543701	656.047241	404.393951	203.881302	473.513977	380.453796	218.905807	450.322388	272.343048	173.421463	353.188293	402.039642	187.446167	267.642059	382.006592	159.239914	186.377930	370.639923	215.983398	269.822906	354.643433	154.615265	99.729424	358.436371	199.773560	121.987717	273.337250	109.502144	65.646255	297.111603	382.109802	75.625313	334.594879	280.639648	43.289284	392.357544	303.926178	59.783527	277.013367	225.415878	764.390625	12.175544	239.796204	678.314392	17.093523	276.079071	675.087646	25.375340	207.968399	595.652100	29.107250	180.162704	477.246094	49.723541	201.344498	455.764252	159.578262	154.514587	99.208664	56.021358	170.974243	121.936607	141.028687	100.993362	58.866184	110.533188	310.769409	52.389427	132.951859	290.003387	51.064896	17.852190	158.298126	370.757935	23.899818	176.151779	285.998627	36.869286	149.317917	201.996445	38.043812	206.943726	286.444397	61.432114	380.360352	71.579033	69.495300	
1752	8.7600	226.015717	1418.301636	397.853119	226.824692	1429.723999	43.692127	189.017410	1491.055420	218.318939	309.379486	1395.113647	223.945038	249.996872	1202.707642	577.397827	358.431641	1048.591675	767.514709	231.772522	1207.334717	-127.602829	329.078644	1071.057983	-328.691437	111.752129	964.904236	231.173172	262.143341	1008.462219	51.174099	275.383606	986.889893	388.514496	315.028107	955.494751	79.824150	328.501465	945.564331	350.085083	135.746399	998.607361	258.537903	121.958138	995.845642	194.925827	237.486160	872.034241	401.579193	241.050430	896.971680	28.078159	248.412415	749.867004	420.492096	257.072235	660.285889	413.849152	221.051300	582.250061	400.253418	293.552521	656.038574	404.403107	203.883728	473.527985	380.454620	218.923355	450.338013	272.342133	173.420578	353.177734	402.046143	187.446091	267.644348	382.008179	159.236877	186.364090	370.630585	216.005005	269.829498	354.645782	154.622467	99.726555	358.413147	199.793716	121.979340	273.326080	109.501633	65.661995	297.118286	382.110687	75.641670	334.593750	280.642944	43.282070	392.344910	303.912964	59.788723	277.008514	225.468567	764.390747	12.178158	239.833252	678.303833	17.108044	276.111725	675.089233	25.369858	207.981842	595.657227	29.107534	180.182907	477.246704	49.727554	201.389633	455.761719	159.594070	154.517487	99.222618	56.033184	170.967834	121.954315	141.034683	100.980576	58.874859	110.526138	310.763885	52.395992	132.967529	289.994995	51.072689	17.832727	158.316711	370.758514	23.904503	176.187454	286.000122	36.879658	149.332443	202.012802	38.038124	206.952133	286.444733	61.441292	380.349670	71.569901	69.488503	
1753	8.7650	226.036331	1418.297241	397.853455	226.867462	1429.723267	43.698532	189.049332	1491.064941	218.298416	309.402069	1395.115479	223.968140	250.026352	1202.699463	577.388672	358.456299	1048.589111	767.521851	231.832062	1207.340942	-127.595024	329.143951	1071.052002	-328.671448	111.788078	964.900574	231.159088	262.182190	1008.462402	51.174618	275.410889	986.898865	388.510742	315.059662	955.481323	79.823082	328.531281	945.564270	350.080292	135.777039	998.608398	258.541931	122.019409	995.825684	194.902802	237.514359	872.004761	401.597382	241.070618	896.966064	28.072775	248.425339	749.862122	420.491577	257.074738	660.305298	413.855042	221.073227	582.252075	400.246674	293.561829	656.040283	404.406555	203.898727	473.523041	380.450470	218.935104	450.331085	272.346558	173.436523	353.183716	402.037689	187.470215	267.627075	381.981873	159.212524	186.370575	370.618591	216.005920	269.831390	354.646698	154.607513	99.752411	358.417725	199.790024	121.990646	273.317352	109.502136	65.646248	297.111603	382.110413	75.629242	334.575928	280.659546	43.263985	392.365326	303.905792	59.795956	276.986694	225.486023	764.390137	12.167667	239.846542	678.306335	17.092155	276.138855	675.076965	25.390524	208.009201	595.646667	29.106104	180.195862	477.251129	49.726643	201.400558	455.772156	159.594315	154.519577	99.224525	56.015995	170.983917	121.939095	141.035995	100.992760	58.865555	110.527084	310.758362	52.388947	132.952484	290.007782	51.067356	17.839375	158.334915	370.767151	23.916616	176.176178	286.015564	36.874878	149.339264	202.012177	38.034531	206.978546	286.430695	61.467739	380.356232	71.561272	69.495667	
